<svg version="1.1" id="Layer_1" xmlns="http://www.w3.org/2000/svg" xmlns:xlink="http://www.w3.org/1999/xlink" x="0px" y="0px"
	 width="100%" viewBox="0 0 192 192" enable-background="new 0 0 192 192" xml:space="preserve">
<path fill="#0F2B48" opacity="1.000000" stroke="none" 
	d="
M0.999998,183.000000 
	C1.000000,125.979103 1.000000,68.958206 1.359296,11.459234 
	C4.812394,7.654102 7.906197,4.327051 11.000000,1.000000 
	C68.020897,1.000000 125.041786,1.000000 182.535156,1.349065 
	C186.338425,4.798755 189.669205,7.899380 193.000000,11.000002 
	C193.000000,68.020897 193.000000,125.041786 192.640717,182.540787 
	C189.187622,186.345932 186.093826,189.672974 183.000000,193.000000 
	C125.979103,193.000000 68.958206,193.000000 11.459234,192.640701 
	C7.654100,189.187607 4.327048,186.093811 0.999998,183.000000 
M119.186470,86.829689 
	C115.607430,83.236298 114.703331,83.336884 113.279411,87.770103 
	C111.757622,92.508003 110.721169,97.429497 108.827843,102.003876 
	C108.241821,103.419754 105.546989,103.962807 103.817665,104.905472 
	C103.501930,103.310280 102.766266,101.663162 102.955757,100.130432 
	C103.381798,96.684532 104.677643,93.307930 104.782608,89.877518 
	C104.831352,88.284454 103.220802,85.613792 101.848427,85.219139 
	C99.044395,84.412796 97.279076,86.225784 97.060272,89.366119 
	C96.864006,92.183075 97.144630,95.437416 95.819160,97.670265 
	C94.124260,100.525467 91.029625,102.549759 88.538208,104.932137 
	C88.503693,102.376884 88.320839,99.812790 88.472527,97.268639 
	C88.658730,94.145447 89.386375,91.034401 89.332802,87.927544 
	C89.313019,86.780495 87.890091,84.972816 86.825874,84.737289 
	C85.913971,84.535469 84.066887,85.906570 83.570465,87.005386 
	C82.353371,89.699333 81.273735,92.582024 80.872322,95.490021 
	C80.159721,100.652237 76.510872,102.715614 71.978905,104.689255 
	C71.970078,99.993179 72.576225,95.552048 73.674889,91.236298 
	C74.434784,88.251289 72.511246,84.772629 69.497688,84.893059 
	C66.766190,85.002235 64.040047,85.346672 61.322144,85.675072 
	C54.055679,86.553047 50.839527,91.649445 47.997929,97.691322 
	C46.664047,100.527451 43.599632,102.549683 41.319462,104.940750 
	C40.209633,102.675194 39.016163,100.445557 38.021900,98.130371 
	C37.441963,96.779968 37.180733,95.292694 36.805859,93.971802 
	C38.615318,92.509064 40.463715,91.340508 41.903603,89.792076 
	C46.976891,84.336365 45.828354,76.172150 39.629318,72.724464 
	C33.276203,69.191086 22.397926,70.318153 17.068386,75.168602 
	C15.978113,76.160866 15.211059,77.508270 13.859857,79.254280 
	C19.643164,77.972755 24.334393,76.586098 29.124495,75.977005 
	C33.270519,75.449799 36.579021,77.475868 36.628586,81.996483 
	C36.670727,85.840385 36.019505,89.805153 30.231470,89.126411 
	C28.116446,88.878395 25.463879,90.750793 27.952944,92.639183 
	C32.018799,95.723846 31.504557,99.799004 32.076023,103.743568 
	C33.184143,111.392365 37.745586,113.528717 44.351704,109.371162 
	C45.460415,108.673393 46.496254,107.859833 47.547504,107.112747 
	C54.006943,113.166000 58.260021,113.262360 65.431870,107.591911 
	C69.279221,112.943687 70.635773,112.823051 80.221375,106.276703 
	C83.704620,112.621597 86.142990,112.901176 94.294579,108.135353 
	C97.239616,109.719543 99.996246,111.202385 103.264534,112.960457 
	C101.510963,113.392670 99.986763,113.363319 99.037094,114.087433 
	C97.108353,115.558105 93.800247,117.855370 94.098671,119.058228 
	C94.704887,121.501717 96.912308,124.380249 99.207092,125.403435 
	C104.366592,127.703918 109.382339,125.088188 111.962471,119.894783 
	C112.886215,118.035423 113.793701,115.981171 115.267662,114.622269 
	C118.032425,112.073326 121.204552,109.966232 123.353104,108.327026 
	C126.753120,109.555084 129.727066,111.527786 132.635315,111.435265 
	C135.748535,111.336220 138.799881,109.291687 140.897186,108.477242 
	C142.140503,109.309052 143.660095,111.153603 144.822006,110.950615 
	C148.578491,110.294342 152.203506,108.885559 155.861328,107.772163 
	C157.042099,112.466377 159.364395,113.593208 162.784576,110.133102 
	C163.834061,109.071358 163.352020,106.590340 163.794937,104.815056 
	C164.762329,100.937538 165.639130,97.004524 167.083511,93.301117 
	C167.463120,92.327827 169.781799,92.110794 171.209991,91.546463 
	C171.496414,92.891487 172.094437,94.256538 172.009506,95.577675 
	C171.776260,99.205765 170.901337,102.826439 171.013107,106.427299 
	C171.062347,108.012978 173.213287,110.999313 173.851273,110.856346 
	C177.281464,110.087685 180.992889,109.130630 183.699554,107.054993 
	C185.694443,105.525185 186.297791,102.180779 187.521194,99.644920 
	C187.028366,99.401131 186.535553,99.157333 186.042740,98.913544 
	C183.623322,101.009155 181.203918,103.104767 177.611572,106.216331 
	C178.582672,100.996269 179.518433,97.354935 179.890350,93.656906 
	C180.523071,87.365219 176.877380,84.308586 170.667206,85.701241 
	C169.125275,86.047020 167.663666,86.751015 166.352875,87.222794 
	C164.998245,86.054840 163.802795,85.024139 161.360199,82.918152 
	C159.543365,87.929878 157.708496,91.913078 156.687317,96.094978 
	C155.541122,100.788750 152.524307,103.107742 147.945740,104.632851 
	C147.979614,100.029518 148.825684,95.742554 149.420975,91.421059 
	C149.625885,89.933395 149.758820,87.839523 148.929855,86.956970 
	C147.897705,85.858086 145.866608,85.572060 144.205887,85.240814 
	C143.347946,85.069702 142.353912,85.743896 141.428482,85.722855 
	C132.226471,85.513741 127.301163,89.242508 124.188782,97.647614 
	C122.856087,101.246635 120.046989,104.298950 117.908730,107.599678 
	C117.392136,107.317184 116.875542,107.034698 116.358948,106.752205 
	C116.964584,104.400398 117.762024,102.078377 118.132912,99.690109 
	C118.759422,95.655853 119.115906,91.579659 119.186470,86.829689 
M14.881647,108.142677 
	C16.001020,109.412720 17.120394,110.682762 18.239767,111.952805 
	C19.972300,110.249008 22.803513,108.785606 23.238436,106.797890 
	C24.750843,99.885773 25.501745,92.800591 26.388153,85.761826 
	C26.657820,83.620445 26.429945,81.416412 26.429945,79.241074 
	C25.922043,79.126564 25.414139,79.012054 24.906237,78.897545 
	C17.945528,86.931587 15.719372,96.829880 14.881647,108.142677 
M86.708931,76.966454 
	C86.987457,77.735085 87.226791,79.142738 87.551254,79.162636 
	C89.021118,79.252792 91.343376,79.471146 91.835526,78.687141 
	C93.023407,76.794846 93.908768,74.350754 93.839073,72.163467 
	C93.795654,70.800850 91.789909,69.500748 90.664818,68.172585 
	C89.454720,69.377861 87.912178,70.404114 87.137047,71.843613 
	C86.487167,73.050468 86.732864,74.739578 86.708931,76.966454 
z"/>
<path fill="#000000" opacity="1.000000" stroke="none" 
	d="
M193.000000,10.513437 
	C189.669205,7.899380 186.338425,4.798755 183.003815,1.349065 
	C186.252457,1.000000 189.504913,1.000000 193.000000,1.000000 
	C193.000000,4.006597 193.000000,7.016734 193.000000,10.513437 
z"/>
<path fill="#000000" opacity="1.000000" stroke="none" 
	d="
M10.513435,1.000000 
	C7.906197,4.327051 4.812394,7.654102 1.359296,10.990577 
	C1.000000,7.747543 1.000000,4.495087 1.000000,1.000000 
	C4.006597,1.000000 7.016734,1.000000 10.513435,1.000000 
z"/>
<path fill="#000000" opacity="1.000000" stroke="none" 
	d="
M0.999998,183.486572 
	C4.327048,186.093811 7.654100,189.187607 10.990576,192.640701 
	C7.747546,193.000000 4.495092,193.000000 1.000000,193.000000 
	C1.000000,189.993408 1.000000,186.983276 0.999998,183.486572 
z"/>
<path fill="#000000" opacity="1.000000" stroke="none" 
	d="
M183.486572,193.000000 
	C186.093826,189.672974 189.187622,186.345932 192.640717,183.009445 
	C193.000000,186.252457 193.000000,189.504898 193.000000,193.000000 
	C189.993408,193.000000 186.983276,193.000000 183.486572,193.000000 
z"/>
<path fill="#F3F5F6" opacity="1.000000" stroke="none" 
	d="
M119.386200,87.175400 
	C119.115906,91.579659 118.759422,95.655853 118.132912,99.690109 
	C117.762024,102.078377 116.964584,104.400398 116.358948,106.752205 
	C116.875542,107.034698 117.392136,107.317184 117.908730,107.599678 
	C120.046989,104.298950 122.856087,101.246635 124.188782,97.647614 
	C127.301163,89.242508 132.226471,85.513741 141.428482,85.722855 
	C142.353912,85.743896 143.347946,85.069702 144.205887,85.240814 
	C145.866608,85.572060 147.897705,85.858086 148.929855,86.956970 
	C149.758820,87.839523 149.625885,89.933395 149.420975,91.421059 
	C148.825684,95.742554 147.979614,100.029518 147.945740,104.632851 
	C152.524307,103.107742 155.541122,100.788750 156.687317,96.094978 
	C157.708496,91.913078 159.543365,87.929878 161.360199,82.918152 
	C163.802795,85.024139 164.998245,86.054840 166.352875,87.222794 
	C167.663666,86.751015 169.125275,86.047020 170.667206,85.701241 
	C176.877380,84.308586 180.523071,87.365219 179.890350,93.656906 
	C179.518433,97.354935 178.582672,100.996269 177.611572,106.216331 
	C181.203918,103.104767 183.623322,101.009155 186.042740,98.913544 
	C186.535553,99.157333 187.028366,99.401131 187.521194,99.644920 
	C186.297791,102.180779 185.694443,105.525185 183.699554,107.054993 
	C180.992889,109.130630 177.281464,110.087685 173.851273,110.856346 
	C173.213287,110.999313 171.062347,108.012978 171.013107,106.427299 
	C170.901337,102.826439 171.776260,99.205765 172.009506,95.577675 
	C172.094437,94.256538 171.496414,92.891487 171.209991,91.546463 
	C169.781799,92.110794 167.463120,92.327827 167.083511,93.301117 
	C165.639130,97.004524 164.762329,100.937538 163.794937,104.815056 
	C163.352020,106.590340 163.834061,109.071358 162.784576,110.133102 
	C159.364395,113.593208 157.042099,112.466377 155.861328,107.772163 
	C152.203506,108.885559 148.578491,110.294342 144.822006,110.950615 
	C143.660095,111.153603 142.140503,109.309052 140.897186,108.477242 
	C138.799881,109.291687 135.748535,111.336220 132.635315,111.435265 
	C129.727066,111.527786 126.753120,109.555084 123.353104,108.327026 
	C121.204552,109.966232 118.032425,112.073326 115.267662,114.622269 
	C113.793701,115.981171 112.886215,118.035423 111.962471,119.894783 
	C109.382339,125.088188 104.366592,127.703918 99.207092,125.403435 
	C96.912308,124.380249 94.704887,121.501717 94.098671,119.058228 
	C93.800247,117.855370 97.108353,115.558105 99.037094,114.087433 
	C99.986763,113.363319 101.510963,113.392670 103.264534,112.960457 
	C99.996246,111.202385 97.239616,109.719543 94.294579,108.135353 
	C86.142990,112.901176 83.704620,112.621597 80.221375,106.276703 
	C70.635773,112.823051 69.279221,112.943687 65.431870,107.591911 
	C58.260021,113.262360 54.006943,113.166000 47.547504,107.112747 
	C46.496254,107.859833 45.460415,108.673393 44.351704,109.371162 
	C37.745586,113.528717 33.184143,111.392365 32.076023,103.743568 
	C31.504557,99.799004 32.018799,95.723846 27.952944,92.639183 
	C25.463879,90.750793 28.116446,88.878395 30.231470,89.126411 
	C36.019505,89.805153 36.670727,85.840385 36.628586,81.996483 
	C36.579021,77.475868 33.270519,75.449799 29.124495,75.977005 
	C24.334393,76.586098 19.643164,77.972755 13.859857,79.254280 
	C15.211059,77.508270 15.978113,76.160866 17.068386,75.168602 
	C22.397926,70.318153 33.276203,69.191086 39.629318,72.724464 
	C45.828354,76.172150 46.976891,84.336365 41.903603,89.792076 
	C40.463715,91.340508 38.615318,92.509064 36.805859,93.971802 
	C37.180733,95.292694 37.441963,96.779968 38.021900,98.130371 
	C39.016163,100.445557 40.209633,102.675194 41.319458,104.940750 
	C43.599632,102.549683 46.664047,100.527451 47.997929,97.691322 
	C50.839527,91.649445 54.055679,86.553047 61.322144,85.675072 
	C64.040047,85.346672 66.766190,85.002235 69.497688,84.893059 
	C72.511246,84.772629 74.434784,88.251289 73.674889,91.236298 
	C72.576225,95.552048 71.970078,99.993179 71.978905,104.689255 
	C76.510872,102.715614 80.159721,100.652237 80.872322,95.490021 
	C81.273735,92.582024 82.353371,89.699333 83.570465,87.005386 
	C84.066887,85.906570 85.913971,84.535469 86.825874,84.737289 
	C87.890091,84.972816 89.313019,86.780495 89.332802,87.927544 
	C89.386375,91.034401 88.658730,94.145447 88.472527,97.268639 
	C88.320839,99.812790 88.503693,102.376884 88.538208,104.932129 
	C91.029625,102.549759 94.124260,100.525467 95.819160,97.670265 
	C97.144630,95.437416 96.864006,92.183075 97.060272,89.366119 
	C97.279076,86.225784 99.044395,84.412796 101.848427,85.219139 
	C103.220802,85.613792 104.831352,88.284454 104.782608,89.877518 
	C104.677643,93.307930 103.381798,96.684532 102.955757,100.130432 
	C102.766266,101.663162 103.501930,103.310280 103.817665,104.905472 
	C105.546989,103.962807 108.241821,103.419754 108.827843,102.003876 
	C110.721169,97.429497 111.757622,92.508003 113.279411,87.770103 
	C114.703331,83.336884 115.607430,83.236298 119.386200,87.175400 
M56.590294,96.611450 
	C56.293430,98.231743 55.639420,99.889359 55.803726,101.461449 
	C55.957077,102.928688 56.656715,105.074684 57.706367,105.515327 
	C58.867004,106.002548 61.019535,105.289009 62.153965,104.372749 
	C63.474445,103.306221 64.695770,101.555153 65.007530,99.919579 
	C65.637627,96.613869 65.624283,93.185516 65.876297,89.807747 
	C65.429619,89.475975 64.982948,89.144211 64.536270,88.812447 
	C61.998440,91.170464 59.460606,93.528488 56.590294,96.611450 
M132.011581,98.146317 
	C131.888779,99.135803 131.455872,100.215042 131.710632,101.095245 
	C132.175919,102.702698 132.727997,105.106453 133.833939,105.493950 
	C135.143082,105.952667 137.363754,104.992958 138.654633,103.972008 
	C139.831741,103.041046 140.710556,101.281342 140.985367,99.754532 
	C141.568405,96.515099 141.672729,93.189499 142.000641,89.600433 
	C136.922684,90.256622 134.265060,93.423309 132.011581,98.146317 
z"/>
<path fill="#F3F5F6" opacity="1.000000" stroke="none" 
	d="
M14.858858,107.699799 
	C15.719372,96.829880 17.945528,86.931587 24.906237,78.897545 
	C25.414139,79.012054 25.922043,79.126564 26.429945,79.241074 
	C26.429945,81.416412 26.657820,83.620445 26.388153,85.761826 
	C25.501745,92.800591 24.750843,99.885773 23.238436,106.797890 
	C22.803513,108.785606 19.972300,110.249008 18.239767,111.952805 
	C17.120394,110.682762 16.001020,109.412720 14.858858,107.699799 
z"/>
<path fill="#F1F2F4" opacity="1.000000" stroke="none" 
	d="
M86.645477,76.590805 
	C86.732864,74.739578 86.487167,73.050468 87.137047,71.843613 
	C87.912178,70.404114 89.454720,69.377861 90.664825,68.172592 
	C91.789909,69.500748 93.795654,70.800850 93.839073,72.163467 
	C93.908768,74.350754 93.023407,76.794846 91.835526,78.687141 
	C91.343376,79.471146 89.021118,79.252792 87.551254,79.162636 
	C87.226791,79.142738 86.987457,77.735085 86.645477,76.590805 
z"/>
<path fill="#1A3550" opacity="1.000000" stroke="none" 
	d="
M56.756531,96.248978 
	C59.460606,93.528488 61.998440,91.170464 64.536270,88.812447 
	C64.982948,89.144211 65.429619,89.475975 65.876297,89.807747 
	C65.624283,93.185516 65.637627,96.613869 65.007530,99.919579 
	C64.695770,101.555153 63.474445,103.306221 62.153965,104.372749 
	C61.019535,105.289009 58.867004,106.002548 57.706367,105.515327 
	C56.656715,105.074684 55.957077,102.928688 55.803726,101.461449 
	C55.639420,99.889359 56.293430,98.231743 56.756531,96.248978 
z"/>
<path fill="#193450" opacity="1.000000" stroke="none" 
	d="
M132.107758,97.749756 
	C134.265060,93.423309 136.922684,90.256622 142.000641,89.600433 
	C141.672729,93.189499 141.568405,96.515099 140.985367,99.754532 
	C140.710556,101.281342 139.831741,103.041046 138.654633,103.972008 
	C137.363754,104.992958 135.143082,105.952667 133.833939,105.493950 
	C132.727997,105.106453 132.175919,102.702698 131.710632,101.095245 
	C131.455872,100.215042 131.888779,99.135803 132.107758,97.749756 
z"/>
</svg>